<?xml-stylesheet type="text/css" href="../../style/about.css"?>

<svg xmlns="http://www.w3.org/2000/svg" viewBox="0 0 538.83 113.39">

<path class="logo__M" d="M92.11,5.49H116V2.77H89.76l-25,72.16L39.68,2.77H.48V5.49H12.16c.21.22.4,1.74.56,4.56S13,16.53,13,21s.1,9.58.16,15.28.08,11.5.08,17.36V69.73q0,7.92-.08,14.4t-.24,11c-.11,3-.21,5-.32,6-.32,2.88-1.52,4.54-3.6,5a29.39,29.39,0,0,1-7.12.48H0v2.88H38.08v-2.72H33a15.08,15.08,0,0,1-3.84-.48,8,8,0,0,1-3.12-1.52,4,4,0,0,1-1.44-3,13.11,13.11,0,0,1-.32-3.2V19.25l1.28-.32L57,107.73Q64.64,86,72.08,64.29t14.8-43.44L92.11,5.49"/>
<path class="logo__E" d="M100.7,5.49h-8V2.77h80.17L173,29h-2.72q-1.29-8.79-4.56-13.52a19.79,19.79,0,0,0-8-6.88A28.28,28.28,0,0,0,147,6.21Q141,6,134.14,6H120.06Zm19.36,100.8h15.52q7.36,0,13.69-.4a25,25,0,0,0,11-3,18.27,18.27,0,0,0,7.36-8.4q2.72-5.76,2.72-16.48H173v31.52H92.7v-2.72h8Z"/>
<path class="logo__E__2" d="M120.06,53.17h4.16c3.31,0,6.22-.1,8.72-.32a12.82,12.82,0,0,0,6.33-2.08,10.52,10.52,0,0,0,3.83-5.52,36,36,0,0,0,1.44-10.48h2.57V75.09h-2.57a39.86,39.86,0,0,0-1.19-9.68,12.16,12.16,0,0,0-3-5.44,9.38,9.38,0,0,0-4.64-2.4A31.53,31.53,0,0,0,129.5,57h-9.44Z"/>
<path class="logo__M" d="M274.65,5.49h23.9V2.77H272.31l-25,72.16L222.23,2.77H183V5.49h11.69c.21.22.4,1.74.56,4.56s.26,6.48.32,11,.1,9.58.16,15.28.08,11.5.08,17.36V69.73q0,7.92-.08,14.4t-.25,11c-.1,3-.21,5-.31,6-.32,2.88-1.52,4.54-3.61,5a29.32,29.32,0,0,1-7.12.48h-1.91v2.88h38.08v-2.72h-5a15.19,15.19,0,0,1-3.84-.48,8.13,8.13,0,0,1-3.12-1.52,4.08,4.08,0,0,1-1.44-3,13.62,13.62,0,0,1-.32-3.2V19.25l1.28-.32,31.37,88.8Q247.19,86,254.63,64.29t14.8-43.44l5.22-15.36"/>
<path class="logo__O" d="M325.69,1.33a30.36,30.36,0,0,1,16.72,4.88A46.92,46.92,0,0,1,355.53,19a63.46,63.46,0,0,1,8.56,17.92,69,69,0,0,1,3,20.08,67.85,67.85,0,0,1-3,20.08,61.41,61.41,0,0,1-8.56,17.6,46.55,46.55,0,0,1-13.12,12.56,31.72,31.72,0,0,1-33.68-.08,44.79,44.79,0,0,1-13.12-12.88,65.27,65.27,0,0,1-8.48-18.08,70.42,70.42,0,0,1-3-20.48,61.36,61.36,0,0,1,3.28-19.68,62.49,62.49,0,0,1,9-17.44,49.36,49.36,0,0,1,13.2-12.48A29.48,29.48,0,0,1,325.69,1.33ZM326,3.89a14.67,14.67,0,0,0-8.8,2.64,22.17,22.17,0,0,0-6.24,7,41.43,41.43,0,0,0-4.08,9.92,94.91,94.91,0,0,0-2.4,11.36q-.89,5.85-1.2,11.52c-.22,3.79-.32,7.18-.32,10.16s.08,6.54.24,10.32.5,7.63,1,11.52a99.71,99.71,0,0,0,2.24,11.44,40.72,40.72,0,0,0,3.92,10,21.28,21.28,0,0,0,6.16,7,15,15,0,0,0,9,2.64,14.62,14.62,0,0,0,9-2.72,21.42,21.42,0,0,0,6.08-7.12,38.9,38.9,0,0,0,3.68-10.08,104.84,104.84,0,0,0,1.92-11.52q.63-5.83.8-11.52c.1-3.78.16-7.17.16-10.16q0-4-.24-9.44t-1-11.2Q345,30,343.69,24.21A42.28,42.28,0,0,0,339.93,14a24.31,24.31,0,0,0-5.76-7.28A12.36,12.36,0,0,0,326,3.89Z"/>
<path class="logo__R" d="M401.64,106.77h9.76v2.72H375.24v-2.72H384V5.49h-8.8V2.77h46.24a42.92,42.92,0,0,1,10.4,1.28,25,25,0,0,1,9,4.24,22.35,22.35,0,0,1,6.4,7.84,27,27,0,0,1,2.48,12.24,25.93,25.93,0,0,1-1.68,9.76,21.66,21.66,0,0,1-4.56,7.12,24.57,24.57,0,0,1-6.72,4.88A35.29,35.29,0,0,1,428.68,53v1.76a21.89,21.89,0,0,1,10.48,5.68,26.67,26.67,0,0,1,5.68,8.88,38,38,0,0,1,2.4,10.48c.32,3.68.53,7.18.64,10.48q.17,3.52.4,6.64a28.63,28.63,0,0,0,.88,5.44,8.62,8.62,0,0,0,1.92,3.68,4.59,4.59,0,0,0,3.52,1.36,9,9,0,0,0,2.72-.4c.85-.26,1.71-.56,2.56-.88a.45.45,0,0,0,.32-.16l1,2.4a21.4,21.4,0,0,1-5.36,1.76,29.93,29.93,0,0,1-5.36.48c-4.7,0-8.37-.69-11-2.08a14.86,14.86,0,0,1-6.16-5.76,23.71,23.71,0,0,1-2.88-8.8q-.72-5.11-1.2-11.36c-.11-1.28-.22-2.61-.32-4s-.27-2.82-.48-4.32q-.8-6.87-3.28-10.72A15.88,15.88,0,0,0,419,57.89a22,22,0,0,0-8.08-2.24c-3-.26-6.08-.4-9.28-.4Zm0-101.28v47.2h5.12a31.47,31.47,0,0,0,8.88-1.28,21.16,21.16,0,0,0,7.76-4.08,20.65,20.65,0,0,0,5.44-7.2,25.24,25.24,0,0,0,2.08-10.8A31.26,31.26,0,0,0,429,17.49a17.57,17.57,0,0,0-5.28-7.28,19.79,19.79,0,0,0-7.84-3.68,42.61,42.61,0,0,0-9.6-1Z"/>
<path class="logo__y" d="M510.51,2.77h28.32V5.33h-3.36a14.32,14.32,0,0,0-3.68.4,6,6,0,0,0-2.64,1.6,12,12,0,0,0-2.24,3.44c-.7,1.5-1.52,3.42-2.48,5.76l-20,50.4v39.84h10.24v2.72H477.06v-2.72h10.09V70.61L462,5.49h-8.48V2.77h38.25V5.49H481.7L503,60.85l15.52-37.92a25.38,25.38,0,0,0,1.12-2.8c.42-1.22.85-2.5,1.28-3.84s.8-2.61,1.12-3.84a12.3,12.3,0,0,0,.48-3A3.23,3.23,0,0,0,520,6.05a19.19,19.19,0,0,0-5.36-.72c-.75,0-1.44,0-2.08.08s-1.23.08-1.76.08h-.32Z"/>

</svg>