<svg xmlns="http://www.w3.org/2000/svg" viewBox="0 0 82.32 113.39"><defs><style>.a{fill:#040000;}</style></defs><path class="a" d="M9,6.05H1V3.33H81.16l.16,26.24H78.6Q77.33,20.78,74,16.05a19.73,19.73,0,0,0-8-6.88,28.27,28.27,0,0,0-10.72-2.4q-6-.24-12.88-.24H28.36Zm19.36,100.8H43.88q7.36,0,13.68-.4a25,25,0,0,0,11-3A18.22,18.22,0,0,0,75.88,95q2.72-5.76,2.72-16.48h2.72v31.52H1v-2.72H9Z"/><path class="a" d="M28.36,53.73h4.16c3.31,0,6.21-.1,8.72-.32a12.78,12.78,0,0,0,6.32-2.08,10.48,10.48,0,0,0,3.84-5.52,36.75,36.75,0,0,0,1.44-10.48H55.4V75.65H52.84A40.29,40.29,0,0,0,51.64,66a12,12,0,0,0-3-5.44A9.38,9.38,0,0,0,44,58.13a31.36,31.36,0,0,0-6.24-.56H28.36Z"/></svg>