<svg xmlns="http://www.w3.org/2000/svg" viewBox="0 0 118 113.39"><defs><style>.a{fill:#040000;}</style></defs><path class="a" d="M93.11,6.05H117V3.33H90.76l-25,72.16L40.68,3.33H1.48V6.05H13.16c.21.22.4,1.74.56,4.56s.26,6.48.32,11,.1,9.58.16,15.28.08,11.5.08,17.36V70.29q0,7.92-.08,14.4t-.24,11c-.11,3-.21,5-.32,6-.32,2.88-1.52,4.54-3.6,5a29.39,29.39,0,0,1-7.12.48H1v2.88H39.08v-2.72H34a15.08,15.08,0,0,1-3.84-.48,8,8,0,0,1-3.12-1.52,4,4,0,0,1-1.44-3,13.11,13.11,0,0,1-.32-3.2V19.81l1.28-.32L58,108.29q7.68-21.75,15.12-43.44t14.8-43.44L93.11,6.05"/></svg>