<?xml-stylesheet type="text/css" href="../../style/about.css"?>

<svg xmlns="http://www.w3.org/2000/svg" viewBox="0 0 186.9 113.39">
<path class="letter__ME letter__M"  d="M92.75,6.05h23.89V3.33H90.4l-25,72.16L40.32,3.33H1.12V6.05H12.8c.21.22.4,1.74.56,4.56s.27,6.48.32,11,.11,9.58.16,15.28.08,11.5.08,17.36V70.29q0,7.92-.08,14.4c-.05,4.32-.14,8-.24,11s-.21,5-.32,6c-.32,2.88-1.52,4.54-3.6,5a29.36,29.36,0,0,1-7.12.48H.64v2.88H38.72v-2.72h-5a15.08,15.08,0,0,1-3.84-.48,8,8,0,0,1-3.12-1.52,4,4,0,0,1-1.44-3,13.62,13.62,0,0,1-.32-3.2V19.81l1.28-.32,31.36,88.8q7.68-21.75,15.12-43.44t14.8-43.44L92.75,6.05"/>
<path class="letter__ME letter__E"  d="M101.34,6.05h-8V3.33h80.17l.16,26.24H171q-1.29-8.79-4.56-13.52a19.79,19.79,0,0,0-8-6.88,28.27,28.27,0,0,0-10.72-2.4q-6-.24-12.88-.24H120.71Zm19.37,100.8h15.52q7.35,0,13.68-.4a25,25,0,0,0,11-3,18.27,18.27,0,0,0,7.36-8.4q2.72-5.76,2.72-16.48h2.72v31.52H93.34v-2.72h8Z"/>
<path class="letter__ME letter__E__2"  d="M120.71,53.73h4.15c3.31,0,6.22-.1,8.73-.32a12.82,12.82,0,0,0,6.32-2.08,10.59,10.59,0,0,0,3.84-5.52,36.75,36.75,0,0,0,1.44-10.48h2.56V75.65h-2.56A40.29,40.29,0,0,0,144,66a12.07,12.07,0,0,0-3-5.44,9.38,9.38,0,0,0-4.64-2.4,31.5,31.5,0,0,0-6.24-.56h-9.44Z"/>
</svg>