<?xml-stylesheet type="text/css" href="../../style/about.css"?>

<svg xmlns="http://www.w3.org/2000/svg" viewBox="0 0 367.77 113.39">
<path class="letter__MEMO letter__M" d="M92.43,5.49h23.89V2.77H90.08l-25,72.16L40,2.77H.8V5.49H12.48c.21.22.4,1.74.56,4.56s.27,6.48.32,11,.11,9.58.16,15.28.08,11.5.08,17.36V69.73q0,7.92-.08,14.4c0,4.32-.14,8-.24,11s-.21,5-.32,6c-.32,2.88-1.52,4.54-3.6,5a29.36,29.36,0,0,1-7.12.48H.32v2.88H38.4v-2.72h-5a15.08,15.08,0,0,1-3.84-.48,8,8,0,0,1-3.12-1.52,4,4,0,0,1-1.44-3,13.11,13.11,0,0,1-.32-3.2V19.25l1.28-.32,31.36,88.8Q65,86,72.4,64.29T87.2,20.85L92.43,5.49"/>
<path class="letter__MEMO letter__E" d="M101,5.49H93V2.77h80.17L173.35,29h-2.72q-1.29-8.79-4.56-13.52a19.79,19.79,0,0,0-8-6.88,28.27,28.27,0,0,0-10.72-2.4q-6-.24-12.88-.24H120.38Zm19.36,100.8h15.53q7.35,0,13.68-.4a25,25,0,0,0,11-3,18.27,18.27,0,0,0,7.36-8.4q2.72-5.76,2.72-16.48h2.72v31.52H93v-2.72h8Z"/>
<path class="letter__MEMO letter__E__2" d="M120.38,53.17h4.16c3.31,0,6.22-.1,8.72-.32a12.82,12.82,0,0,0,6.33-2.08,10.59,10.59,0,0,0,3.84-5.52,36.75,36.75,0,0,0,1.44-10.48h2.56V75.09h-2.56a40.29,40.29,0,0,0-1.2-9.68,12.07,12.07,0,0,0-3-5.44,9.38,9.38,0,0,0-4.64-2.4,31.5,31.5,0,0,0-6.24-.56h-9.45Z"/>
<path class="letter__MEMO letter__M" d="M275,5.49h23.9V2.77H272.63l-25,72.16L222.55,2.77H183.34V5.49H195c.21.22.4,1.74.56,4.56s.26,6.48.32,11,.1,9.58.16,15.28.08,11.5.08,17.36V69.73q0,7.92-.08,14.4t-.24,11q-.17,4.56-.32,6c-.32,2.88-1.52,4.54-3.61,5a29.32,29.32,0,0,1-7.12.48h-1.91v2.88H221v-2.72h-5a15.05,15.05,0,0,1-3.83-.48,8.1,8.1,0,0,1-3.13-1.52,4.08,4.08,0,0,1-1.44-3,13.62,13.62,0,0,1-.32-3.2V19.25l1.29-.32,31.36,88.8Q247.51,86,255,64.29t14.8-43.44L275,5.49"/>
<path class="letter__MEMO letter__O" d="M326,1.33a30.36,30.36,0,0,1,16.72,4.88A46.92,46.92,0,0,1,355.85,19a63.46,63.46,0,0,1,8.56,17.92,69,69,0,0,1,3,20.08,67.85,67.85,0,0,1-3,20.08,61.41,61.41,0,0,1-8.56,17.6,46.55,46.55,0,0,1-13.12,12.56,31.72,31.72,0,0,1-33.68-.08,44.79,44.79,0,0,1-13.12-12.88,65.27,65.27,0,0,1-8.48-18.08,70.42,70.42,0,0,1-3-20.48,61.36,61.36,0,0,1,3.28-19.68,62.49,62.49,0,0,1,9-17.44,49.36,49.36,0,0,1,13.2-12.48A29.48,29.48,0,0,1,326,1.33Zm.32,2.56a14.67,14.67,0,0,0-8.8,2.64,22.17,22.17,0,0,0-6.24,7,41.43,41.43,0,0,0-4.08,9.92,94.91,94.91,0,0,0-2.4,11.36q-.88,5.85-1.2,11.52c-.22,3.79-.32,7.18-.32,10.16s.08,6.54.24,10.32.5,7.63,1,11.52a99.71,99.71,0,0,0,2.24,11.44,40.72,40.72,0,0,0,3.92,10,21.28,21.28,0,0,0,6.16,7,15,15,0,0,0,9,2.64,14.62,14.62,0,0,0,9-2.72,21.42,21.42,0,0,0,6.08-7.12,38.9,38.9,0,0,0,3.68-10.08,104.84,104.84,0,0,0,1.92-11.52q.63-5.83.8-11.52c.1-3.78.16-7.17.16-10.16q0-4-.24-9.44t-1-11.2Q345.36,30,344,24.21A42.28,42.28,0,0,0,340.25,14a24.31,24.31,0,0,0-5.76-7.28A12.36,12.36,0,0,0,326.33,3.89Z"/>
</svg>