<?xml-stylesheet type="text/css" href="../../style/about.css"?>

<svg xmlns="http://www.w3.org/2000/svg" viewBox="0 0 356.92 113.39" fill="none" stroke="#000">
<path class="letter__MORY__front letter__M" d="M92.43,5.49h23.89V2.77H90.08l-25,72.16L40,2.77H.8V5.49H12.48c.21.22.4,1.74.56,4.56s.27,6.48.32,11,.11,9.58.16,15.28.08,11.5.08,17.36V69.73q0,7.92-.08,14.4c0,4.32-.14,8-.24,11s-.21,5-.32,6c-.32,2.88-1.52,4.54-3.6,5a29.36,29.36,0,0,1-7.12.48H.32v2.88H38.4v-2.72h-5a15.08,15.08,0,0,1-3.84-.48,8,8,0,0,1-3.12-1.52,4,4,0,0,1-1.44-3,13.11,13.11,0,0,1-.32-3.2V19.25l1.28-.32,31.36,88.8Q65,86,72.4,64.29T87.2,20.85L92.43,5.49"/>
<path class="letter__MORY__front letter__O" d="M143.46,1.33a30.33,30.33,0,0,1,16.72,4.88A46.78,46.78,0,0,1,173.3,19a63.19,63.19,0,0,1,8.56,17.92,68.61,68.61,0,0,1,3,20.08,67.53,67.53,0,0,1-3,20.08,61.15,61.15,0,0,1-8.56,17.6,46.42,46.42,0,0,1-13.12,12.56,31.72,31.72,0,0,1-33.68-.08,44.91,44.91,0,0,1-13.12-12.88,65.55,65.55,0,0,1-8.48-18.08,70.42,70.42,0,0,1-3-20.48,61.36,61.36,0,0,1,3.28-19.68,62.76,62.76,0,0,1,9-17.44A49.66,49.66,0,0,1,127.3,6.13,29.48,29.48,0,0,1,143.46,1.33Zm.32,2.56A14.7,14.7,0,0,0,135,6.53a22.41,22.41,0,0,0-6.24,7,41.43,41.43,0,0,0-4.08,9.92,99,99,0,0,0-2.4,11.36q-.89,5.85-1.2,11.52t-.32,10.16q0,4.65.24,10.32t1,11.52a99.71,99.71,0,0,0,2.24,11.44,41.12,41.12,0,0,0,3.92,10,21.39,21.39,0,0,0,6.16,7,15,15,0,0,0,9,2.64,14.6,14.6,0,0,0,9-2.72,21.3,21.3,0,0,0,6.08-7.12A38.54,38.54,0,0,0,162,89.57a102.51,102.51,0,0,0,1.92-11.52q.65-5.83.8-11.52t.16-10.16q0-4-.24-9.44t-1-11.2q-.8-5.76-2.16-11.52A42.28,42.28,0,0,0,157.7,14a24.31,24.31,0,0,0-5.76-7.28A12.36,12.36,0,0,0,143.78,3.89Z"/>
<path class="letter__MORY__front letter__R" d="M219.41,106.77h9.76v2.72H193v-2.72h8.8V5.49H193V2.77h46.25a42.84,42.84,0,0,1,10.39,1.28,25,25,0,0,1,9,4.24,22.45,22.45,0,0,1,6.4,7.84,27,27,0,0,1,2.48,12.24,26.13,26.13,0,0,1-1.68,9.76,21.82,21.82,0,0,1-4.56,7.12,24.72,24.72,0,0,1-6.72,4.88A35.36,35.36,0,0,1,246.45,53v1.76a21.93,21.93,0,0,1,10.49,5.68,26.83,26.83,0,0,1,5.68,8.88A38.39,38.39,0,0,1,265,79.81c.32,3.68.53,7.18.64,10.48.1,2.35.24,4.56.4,6.64a28.63,28.63,0,0,0,.88,5.44,8.41,8.41,0,0,0,1.92,3.68,4.57,4.57,0,0,0,3.52,1.36,9,9,0,0,0,2.72-.4c.85-.26,1.7-.56,2.56-.88A.47.47,0,0,0,278,106l1,2.4a21.54,21.54,0,0,1-5.36,1.76,29.93,29.93,0,0,1-5.36.48q-7.05,0-11.05-2.08a14.89,14.89,0,0,1-6.15-5.76,23.53,23.53,0,0,1-2.88-8.8q-.72-5.11-1.2-11.36c-.11-1.28-.22-2.61-.33-4s-.26-2.82-.48-4.32q-.8-6.87-3.27-10.72a16,16,0,0,0-6.08-5.68,22.13,22.13,0,0,0-8.09-2.24c-3-.26-6.08-.4-9.28-.4Zm0-101.28v47.2h5.12a31.37,31.37,0,0,0,8.88-1.28,21.08,21.08,0,0,0,7.76-4.08,20.53,20.53,0,0,0,5.44-7.2,25.09,25.09,0,0,0,2.09-10.8,31.46,31.46,0,0,0-1.92-11.84,17.5,17.5,0,0,0-5.29-7.28,19.73,19.73,0,0,0-7.84-3.68,42.48,42.48,0,0,0-9.6-1Z"/>
<path class="letter__MORY__front letter__Y" d="M328.28,2.77H356.6V5.33h-3.36a14.38,14.38,0,0,0-3.68.4,6,6,0,0,0-2.64,1.6,12,12,0,0,0-2.24,3.44q-1,2.25-2.48,5.76l-20,50.4v39.84h10.24v2.72h-37.6v-2.72h10.08V70.61L279.8,5.49h-8.48V2.77h38.24V5.49H299.48l21.28,55.36,15.52-37.92a25.38,25.38,0,0,0,1.12-2.8c.43-1.22.85-2.5,1.28-3.84s.8-2.61,1.12-3.84a12.3,12.3,0,0,0,.48-3,3.23,3.23,0,0,0-2.48-3.44,19.13,19.13,0,0,0-5.36-.72c-.75,0-1.44,0-2.08.08s-1.23.08-1.76.08h-.32Z"/>
</svg>