<svg xmlns="http://www.w3.org/2000/svg" viewBox="0 0 85.04 113.39"><defs><style>.a{fill:#040000;}</style></defs><path class="a" d="M42.6,1.33A30.36,30.36,0,0,1,59.32,6.21,46.78,46.78,0,0,1,72.44,19,63.46,63.46,0,0,1,81,36.93,68.61,68.61,0,0,1,84,57a67.53,67.53,0,0,1-3,20.08,61.41,61.41,0,0,1-8.56,17.6,46.42,46.42,0,0,1-13.12,12.56,30.7,30.7,0,0,1-16.72,4.8,30.92,30.92,0,0,1-17-4.88A44.79,44.79,0,0,1,12.52,94.29,65.55,65.55,0,0,1,4,76.21,70.42,70.42,0,0,1,1,55.73,61.36,61.36,0,0,1,4.28,36.05a62.49,62.49,0,0,1,9-17.44A49.51,49.51,0,0,1,26.44,6.13,29.48,29.48,0,0,1,42.6,1.33Zm.32,2.56a14.7,14.7,0,0,0-8.8,2.64,22.29,22.29,0,0,0-6.24,7,41.43,41.43,0,0,0-4.08,9.92,99,99,0,0,0-2.4,11.36q-.88,5.85-1.2,11.52t-.32,10.16q0,4.65.24,10.32t1,11.52A99.71,99.71,0,0,0,23.4,89.81a41.12,41.12,0,0,0,3.92,10,21.39,21.39,0,0,0,6.16,7,15,15,0,0,0,9,2.64,14.6,14.6,0,0,0,9-2.72,21.42,21.42,0,0,0,6.08-7.12,38.54,38.54,0,0,0,3.68-10.08,104.84,104.84,0,0,0,1.92-11.52q.64-5.83.8-11.52T64,56.37q0-4-.24-9.44t-1-11.2Q62,30,60.6,24.21A42.28,42.28,0,0,0,56.84,14a24.31,24.31,0,0,0-5.76-7.28A12.36,12.36,0,0,0,42.92,3.89Z"/></svg>