<svg xmlns="http://www.w3.org/2000/svg" viewBox="0 0 87.92 113.39"><defs><style>.a{fill:#040000;}</style></defs><path class="a" d="M27.4,106.77h9.76v2.72H1v-2.72H9.8V5.49H1V2.77H47.24a42.86,42.86,0,0,1,10.4,1.28,25,25,0,0,1,9,4.24,22.35,22.35,0,0,1,6.4,7.84,27,27,0,0,1,2.48,12.24,25.93,25.93,0,0,1-1.68,9.76,21.66,21.66,0,0,1-4.56,7.12,24.57,24.57,0,0,1-6.72,4.88A35.29,35.29,0,0,1,54.44,53v1.76a21.89,21.89,0,0,1,10.48,5.68,26.67,26.67,0,0,1,5.68,8.88A38,38,0,0,1,73,79.81c.32,3.68.53,7.18.64,10.48q.17,3.52.4,6.64a28.63,28.63,0,0,0,.88,5.44,8.62,8.62,0,0,0,1.92,3.68,4.59,4.59,0,0,0,3.52,1.36,9,9,0,0,0,2.72-.4c.85-.26,1.71-.56,2.56-.88A.43.43,0,0,0,86,106l1,2.4a21.4,21.4,0,0,1-5.36,1.76,29.93,29.93,0,0,1-5.36.48q-7,0-11-2.08A14.86,14.86,0,0,1,59,102.77,23.71,23.71,0,0,1,56.12,94q-.72-5.11-1.2-11.36c-.11-1.28-.21-2.61-.32-4s-.27-2.82-.48-4.32q-.79-6.87-3.28-10.72a15.81,15.81,0,0,0-6.08-5.68,22,22,0,0,0-8.08-2.24c-3-.26-6.08-.4-9.28-.4Zm0-101.28v47.2h5.12a31.37,31.37,0,0,0,8.88-1.28,21.16,21.16,0,0,0,7.76-4.08,20.65,20.65,0,0,0,5.44-7.2,25.09,25.09,0,0,0,2.08-10.8,31.26,31.26,0,0,0-1.92-11.84,17.57,17.57,0,0,0-5.28-7.28,19.79,19.79,0,0,0-7.84-3.68,42.61,42.61,0,0,0-9.6-1Z"/></svg>